/* XPM */
static char *_0584c3baf8b4dbfa96b66eed763e170KsvRjVHgkeJKRore[] = {
/* columns rows colors chars-per-pixel */
"64 64 4 1 ",
"  c #313131",
". c #353535",
"X c gray25",
"o c gray34",
/* pixels */
"XXXXXXXXXX..  ........XXXXXX..                ..XXXXXXXXXXXXXXXX",
"XXXXXXXXXX..  ........XXXXXX..                ..XXXXXXXXXXXXXXXX",
"XXXXXXXX..            ......    oooooooooooooo  ..XXXXXXXXXXXXXX",
"XXXXXXXX..            ......    oooooooooooooo  ..XXXXXXXXXXXXXX",
"XXXXXXXX..  oooooooooo        ooXXXXXXXXXXXXXXoo  ..XXXXXXXXXXXX",
"XXXXXXXX..  oooooooooo        ooXXXXXXXXXXXXXXoo  ..XXXXXXXXXXXX",
"........  ooXXXXXXXXXXoooo..  ........XXXXXXXXXXoo  ..XXXXXX....",
"........  ooXXXXXXXXXXoooo..  ........XXXXXXXXXXoo  ..XXXXXX....",
"          ........XXXXXX..            ..XXXXXXXXXX  ........    ",
"          ........XXXXXX..            ..XXXXXXXXXX  ........    ",
"oooooo..          ..XX..    oooooooo    ..XXXXXXXX            oo",
"oooooo..          ..XX..    oooooooo    ..XXXXXXXX            oo",
"XXXX..      oooo    ..  ooooXXXXXXXXoo    ........  ooooooooooXX",
"XXXX..      oooo    ..  ooooXXXXXXXXoo    ........  ooooooooooXX",
"XX..    ooooXXXXoo    ooXXXXXXXXXXXXXXoo              ..XXXXXXXX",
"XX..    ooooXXXXoo    ooXXXXXXXXXXXXXXoo              ..XXXXXXXX",
"..    ooXXXXXXXXXXoo    XXXXXXXXXXXXXXXX  oooooooooooo  ..XXXXXX",
"..    ooXXXXXXXXXXoo    XXXXXXXXXXXXXXXX  oooooooooooo  ..XXXXXX",
"    ooXXXXXXXXXXXXXXoo  ......XXXXXXXXXX  ooXXXXXXXXXXoo  ..XXXX",
"    ooXXXXXXXXXXXXXXoo  ......XXXXXXXXXX  ooXXXXXXXXXXoo  ..XXXX",
"oo  ooXXXXXXXXXXXXXXXX        ..XXXXXXXX    ooXXXXXXXXXXoo  ....",
"oo  ooXXXXXXXXXXXXXXXX        ..XXXXXXXX    ooXXXXXXXXXXoo  ....",
"oo    XXXXXXXXXXXXXXXX  oooo    ..XXXXXX    ooXXXXXXXXXXXX      ",
"oo    XXXXXXXXXXXXXXXX  oooo    ..XXXXXX    ooXXXXXXXXXXXX      ",
"oo..    XXXXXXXXXXXXXX  XXXXoooo  ..XXXX  oo  ..XXXXXXXX    ooXX",
"oo..    XXXXXXXXXXXXXX  XXXXoooo  ..XXXX  oo  ..XXXXXXXX    ooXX",
"oo  oo  XXXXXXXXXXXXXX  XXXXXXoo    ....  oo    XXXXXXXX  ooXXXX",
"oo  oo  XXXXXXXXXXXXXX  XXXXXXoo    ....  oo    XXXXXXXX  ooXXXX",
"..  XX  XXXXXXXXXXXX..  XXXXXXXXoo      ooXXoo  XXXXXXXX  XXXXXX",
"..  XX  XXXXXXXXXXXX..  XXXXXXXXoo      ooXXoo  XXXXXXXX  XXXXXX",
"    XX  ....XXXXXXXX    XXXXXXXXXX    ooXXXXXX  XXXXXX..  ..XXXX",
"    XX  ....XXXXXXXX    XXXXXXXXXX    ooXXXXXX  XXXXXX..  ..XXXX",
"  ooXXXX    ........  XXXXXXXXXXXX  ooXXXXXXXX  ..XX..  ..XXXXoo",
"  ooXXXX    ........  XXXXXXXXXXXX  ooXXXXXXXX  ..XX..  ..XXXXoo",
"  XXXXXXoooo          XXXXXXXXXX..  ooXXXXXXXX    ..  ......XXoo",
"  XXXXXXoooo          XXXXXXXXXX..  ooXXXXXXXX    ..  ......XXoo",
"  XXXXXXXXXXoo  XXXXXXXXXXXXXX..    ooXXXXXXXX      XX      ....",
"  XXXXXXXXXXoo  XXXXXXXXXXXXXX..    ooXXXXXXXX      XX      ....",
"    XXXXXXXXXX  ..XXXXXX......    ooXXXXXXXX..  oo    oooooo    ",
"    XXXXXXXXXX  ..XXXXXX......    ooXXXXXXXX..  oo    oooooo    ",
"oo  XXXXXXXXXX    ......        ooXXXX......    XXoo  XXXXXXoo  ",
"oo  XXXXXXXXXX    ......        ooXXXX......    XXoo  XXXXXXoo  ",
"oo  ..XXXXXXXXXX..      oooooo  ......      ooooXXXX  XXXXXXXXoo",
"oo  ..XXXXXXXXXX..      oooooo  ......      ooooXXXX  XXXXXXXXoo",
"XXoo  ....XXXX..  ooooooXXXXoo          ooooXXXXXXXX  XXXXXXXXXX",
"XXoo  ....XXXX..  ooooooXXXXoo          ooooXXXXXXXX  XXXXXXXXXX",
"XXXXoo    ....    XXXXXXXXXXXXoooooooo  ooXXXXXXXXXX      XXXXXX",
"XXXXoo    ....    XXXXXXXXXXXXoooooooo  ooXXXXXXXXXX      XXXXXX",
"XXXXXXoo      oo    XXXXXXXXXXXXXXXX..  XXXXXXXXXX..  oooo  XXXX",
"XXXXXXoo      oo    XXXXXXXXXXXXXXXX..  XXXXXXXXXX..  oooo  XXXX",
"XXXXXX  ooooooXXoo  ....XXXXXXXXXX..    XXXXXXXX..    ooXXoo  XX",
"XXXXXX  ooooooXXoo  ....XXXXXXXXXX..    XXXXXXXX..    ooXXoo  XX",
"XXXXXX  XXXXXXXXXXXX    ..........    XXXXXXXX..    ooXXXXXXoo  ",
"XXXXXX  XXXXXXXXXXXX    ..........    XXXXXXXX..    ooXXXXXXoo  ",
"          ..XXXXXXXXXX              XXXXXXXX..    ooXXXXXX..  oo",
"          ..XXXXXXXXXX              XXXXXXXX..    ooXXXXXX..  oo",
"oooooooo    ....XXXX....      oo    ........    ooXXXXXX..  ooXX",
"oooooooo    ....XXXX....      oo    ........    ooXXXXXX..  ooXX",
"XXXXXXXXoo      ....        ooXXoo            ooXXXXXX..  ooXXXX",
"XXXXXXXXoo      ....        ooXXoo            ooXXXXXX..  ooXXXX",
"XXXXXXXXXXoooo        XXXX  XXXXXXXX    XXXXXXXXXXXX..  ooXXXXXX",
"XXXXXXXXXXoooo        XXXX  XXXXXXXX    XXXXXXXXXXXX..  ooXXXXXX",
"XXXXXX  XXXXXXXXXXXXXXXXXX  XXXXXXXXXX    XXXXXXXXXX  XXXXXXXXXX",
"XXXXXX  XXXXXXXXXXXXXXXXXX  XXXXXXXXXX    XXXXXXXXXX  XXXXXXXXXX"
};
