/* XPM */
static char *abc052ce51b94085f278c22fa19c1640tsUSPDkSjf632QwB[] = {
/* columns rows colors chars-per-pixel */
"64 64 5 1 ",
"  c #9C3232",
". c #AD3C3C",
"X c #C04B4B",
"o c #C79FA0",
"O c #D9B4B6",
/* pixels */
"XXXXXXXXXXXXXXXXXX..ooXXXXXXXXXXXXXXXXXX..ooXXXXXXXXXXXXXXXXXX..",
"XXXXXXXXXXXXXXXXXX..ooXXXXXXXXXXXXXXXXXX..ooXXXXXXXXXXXXXXXXXX..",
"XX................  OOXX................  OOXX................  ",
"XX................  OOXX................  OOXX................  ",
"XX................  OOXX................  OOXX................  ",
"XX................  OOXX................  OOXX................  ",
"XX................  OOXX................  OOXX................  ",
"..                  oo..                  oo..                  ",
"..                  oo..                  oo..                  ",
"ooOOOOOooooooOOOOOooooooOOOOOooooooOOOOOooooooOOOOOooooooOOOOOoo",
"ooOOOOOooooooOOOOOooooooOOOOOooooooOOOOOooooooOOOOOooooooOOOOOoo",
"XXXXXXX..ooXXXXXXXXXXXXXXXXXX..ooXXXXXXXXXXXXXXXXXX..ooXXXXXXXXX",
"XXXXXXX..ooXXXXXXXXXXXXXXXXXX..ooXXXXXXXXXXXXXXXXXX..ooXXXXXXXXX",
".......  OOXX................  OOXX................  OOXX.......",
".......  OOXX................  OOXX................  OOXX.......",
".......  OOXX................  OOXX................  OOXX.......",
".......  OOXX................  OOXX................  OOXX.......",
".......  OOXX................  OOXX................  OOXX.......",
"         oo..                  oo..                  oo..       ",
"         oo..                  oo..                  oo..       ",
"ooOOOOOooooooOOOOOooooooOOOOOooooooOOOOOooooooOOOOOooooooOOOOOoo",
"ooOOOOOooooooOOOOOooooooOOOOOooooooOOOOOooooooOOOOOooooooOOOOOoo",
"XXXXXXXXXXXXXXXXXX..ooXXXXXXXXXXXXXXXXXX..ooXXXXXXXXXXXXXXXXXX..",
"XXXXXXXXXXXXXXXXXX..ooXXXXXXXXXXXXXXXXXX..ooXXXXXXXXXXXXXXXXXX..",
"XX................  OOXX................  OOXX................  ",
"XX................  OOXX................  OOXX................  ",
"XX................  OOXX................  OOXX................  ",
"XX................  OOXX................  OOXX................  ",
"XX................  OOXX................  OOXX................  ",
"..                  oo..                  oo..                  ",
"..                  oo..                  oo..                  ",
"ooOOOOOooooooOOOOOooooooOOOOOooooooOOOOOooooooOOOOOooooooOOOOOoo",
"ooOOOOOooooooOOOOOooooooOOOOOooooooOOOOOooooooOOOOOooooooOOOOOoo",
"XXXXXXX..ooXXXXXXXXXXXXXXXXXX..ooXXXXXXXXXXXXXXXXXX..ooXXXXXXXXX",
"XXXXXXX..ooXXXXXXXXXXXXXXXXXX..ooXXXXXXXXXXXXXXXXXX..ooXXXXXXXXX",
".......  OOXX................  OOXX................  OOXX.......",
".......  OOXX................  OOXX................  OOXX.......",
".......  OOXX................  OOXX................  OOXX.......",
".......  OOXX................  OOXX................  OOXX.......",
".......  OOXX................  OOXX................  OOXX.......",
"         oo..                  oo..                  oo..       ",
"         oo..                  oo..                  oo..       ",
"ooOOOOOooooooOOOOOooooooOOOOOooooooOOOOOooooooOOOOOooooooOOOOOoo",
"ooOOOOOooooooOOOOOooooooOOOOOooooooOOOOOooooooOOOOOooooooOOOOOoo",
"XXXXXXXXXXXXXXXXXX..ooXXXXXXXXXXXXXXXXXX..ooXXXXXXXXXXXXXXXXXX..",
"XXXXXXXXXXXXXXXXXX..ooXXXXXXXXXXXXXXXXXX..ooXXXXXXXXXXXXXXXXXX..",
"XX................  OOXX................  OOXX................  ",
"XX................  OOXX................  OOXX................  ",
"XX................  OOXX................  OOXX................  ",
"XX................  OOXX................  OOXX................  ",
"XX................  OOXX................  OOXX................  ",
"..                  oo..                  oo..                  ",
"..                  oo..                  oo..                  ",
"ooOOOOOooooooOOOOOooooooOOOOOooooooOOOOOooooooOOOOOooooooOOOOOoo",
"ooOOOOOooooooOOOOOooooooOOOOOooooooOOOOOooooooOOOOOooooooOOOOOoo",
"XXXXXXX..ooXXXXXXXXXXXXXXXXXX..ooXXXXXXXXXXXXXXXXXX..ooXXXXXXXXX",
"XXXXXXX..ooXXXXXXXXXXXXXXXXXX..ooXXXXXXXXXXXXXXXXXX..ooXXXXXXXXX",
".......  OOXX................  OOXX................  OOXX.......",
".......  OOXX................  OOXX................  OOXX.......",
".......  OOXX................  OOXX................  OOXX.......",
".......  OOXX................  OOXX................  OOXX.......",
".......  OOXX................  OOXX................  OOXX.......",
"         oo..                  oo..                  oo..       ",
"         oo..                  oo..                  oo..       "
};
