/* XPM */
static char *_db23159f9fa4178f5d721eccaefa088buMLFFgUABYcrSlZ[] = {
/* columns rows colors chars-per-pixel */
"64 64 3 1 ",
"  c black",
". c #F58507",
"X c #FEBD25",
/* pixels */
"    ........................................................    ",
"    ........................................................    ",
"    ........................................................    ",
"    ........................................................    ",
"....XXXXXXXXXXXXXXXXXXXXXXXXXXXXXXXXXXXXXXXXXXXXXXXXXXXXXXXX    ",
"....XXXXXXXXXXXXXXXXXXXXXXXXXXXXXXXXXXXXXXXXXXXXXXXXXXXXXXXX    ",
"....XXXXXXXXXXXXXXXXXXXXXXXXXXXXXXXXXXXXXXXXXXXXXXXXXXXXXXXX    ",
"....XXXXXXXXXXXXXXXXXXXXXXXXXXXXXXXXXXXXXXXXXXXXXXXXXXXXXXXX    ",
"....XXXX    XXXXXXXXXXXXXXXXXXXXXXXXXXXXXXXXXXXXXXXX    XXXX    ",
"....XXXX    XXXXXXXXXXXXXXXXXXXXXXXXXXXXXXXXXXXXXXXX    XXXX    ",
"....XXXX    XXXXXXXXXXXXXXXXXXXXXXXXXXXXXXXXXXXXXXXX    XXXX    ",
"....XXXX    XXXXXXXXXXXXXXXXXXXXXXXXXXXXXXXXXXXXXXXX    XXXX    ",
"....XXXXXXXXXXXXXXXX....................XXXXXXXXXXXXXXXXXXXX    ",
"....XXXXXXXXXXXXXXXX....................XXXXXXXXXXXXXXXXXXXX    ",
"....XXXXXXXXXXXXXXXX....................XXXXXXXXXXXXXXXXXXXX    ",
"....XXXXXXXXXXXXXXXX....................XXXXXXXXXXXXXXXXXXXX    ",
"....XXXXXXXXXXXX........            ........XXXXXXXXXXXXXXXX    ",
"....XXXXXXXXXXXX........            ........XXXXXXXXXXXXXXXX    ",
"....XXXXXXXXXXXX........            ........XXXXXXXXXXXXXXXX    ",
"....XXXXXXXXXXXX........            ........XXXXXXXXXXXXXXXX    ",
"....XXXXXXXXXXXX........    XXXXXXXX........    XXXXXXXXXXXX    ",
"....XXXXXXXXXXXX........    XXXXXXXX........    XXXXXXXXXXXX    ",
"....XXXXXXXXXXXX........    XXXXXXXX........    XXXXXXXXXXXX    ",
"....XXXXXXXXXXXX........    XXXXXXXX........    XXXXXXXXXXXX    ",
"....XXXXXXXXXXXX........    XXXXXXXX........    XXXXXXXXXXXX    ",
"....XXXXXXXXXXXX........    XXXXXXXX........    XXXXXXXXXXXX    ",
"....XXXXXXXXXXXX........    XXXXXXXX........    XXXXXXXXXXXX    ",
"....XXXXXXXXXXXX........    XXXXXXXX........    XXXXXXXXXXXX    ",
"....XXXXXXXXXXXXXXXX        XXXX............    XXXXXXXXXXXX    ",
"....XXXXXXXXXXXXXXXX        XXXX............    XXXXXXXXXXXX    ",
"....XXXXXXXXXXXXXXXX        XXXX............    XXXXXXXXXXXX    ",
"....XXXXXXXXXXXXXXXX        XXXX............    XXXXXXXXXXXX    ",
"....XXXXXXXXXXXXXXXXXXXXXXXX........            XXXXXXXXXXXX    ",
"....XXXXXXXXXXXXXXXXXXXXXXXX........            XXXXXXXXXXXX    ",
"....XXXXXXXXXXXXXXXXXXXXXXXX........            XXXXXXXXXXXX    ",
"....XXXXXXXXXXXXXXXXXXXXXXXX........            XXXXXXXXXXXX    ",
"....XXXXXXXXXXXXXXXXXXXXXXXX........    XXXXXXXXXXXXXXXXXXXX    ",
"....XXXXXXXXXXXXXXXXXXXXXXXX........    XXXXXXXXXXXXXXXXXXXX    ",
"....XXXXXXXXXXXXXXXXXXXXXXXX........    XXXXXXXXXXXXXXXXXXXX    ",
"....XXXXXXXXXXXXXXXXXXXXXXXX........    XXXXXXXXXXXXXXXXXXXX    ",
"....XXXXXXXXXXXXXXXXXXXXXXXXXXXX        XXXXXXXXXXXXXXXXXXXX    ",
"....XXXXXXXXXXXXXXXXXXXXXXXXXXXX        XXXXXXXXXXXXXXXXXXXX    ",
"....XXXXXXXXXXXXXXXXXXXXXXXXXXXX        XXXXXXXXXXXXXXXXXXXX    ",
"....XXXXXXXXXXXXXXXXXXXXXXXXXXXX        XXXXXXXXXXXXXXXXXXXX    ",
"....XXXXXXXXXXXXXXXXXXXXXXXX........XXXXXXXXXXXXXXXXXXXXXXXX    ",
"....XXXXXXXXXXXXXXXXXXXXXXXX........XXXXXXXXXXXXXXXXXXXXXXXX    ",
"....XXXXXXXXXXXXXXXXXXXXXXXX........XXXXXXXXXXXXXXXXXXXXXXXX    ",
"....XXXXXXXXXXXXXXXXXXXXXXXX........XXXXXXXXXXXXXXXXXXXXXXXX    ",
"....XXXXXXXXXXXXXXXXXXXXXXXX........    XXXXXXXXXXXXXXXXXXXX    ",
"....XXXXXXXXXXXXXXXXXXXXXXXX........    XXXXXXXXXXXXXXXXXXXX    ",
"....XXXXXXXXXXXXXXXXXXXXXXXX........    XXXXXXXXXXXXXXXXXXXX    ",
"....XXXXXXXXXXXXXXXXXXXXXXXX........    XXXXXXXXXXXXXXXXXXXX    ",
"....XXXX    XXXXXXXXXXXXXXXXXXXX        XXXXXXXXXXXX    XXXX    ",
"....XXXX    XXXXXXXXXXXXXXXXXXXX        XXXXXXXXXXXX    XXXX    ",
"....XXXX    XXXXXXXXXXXXXXXXXXXX        XXXXXXXXXXXX    XXXX    ",
"....XXXX    XXXXXXXXXXXXXXXXXXXX        XXXXXXXXXXXX    XXXX    ",
"....XXXXXXXXXXXXXXXXXXXXXXXXXXXXXXXXXXXXXXXXXXXXXXXXXXXXXXXX    ",
"....XXXXXXXXXXXXXXXXXXXXXXXXXXXXXXXXXXXXXXXXXXXXXXXXXXXXXXXX    ",
"....XXXXXXXXXXXXXXXXXXXXXXXXXXXXXXXXXXXXXXXXXXXXXXXXXXXXXXXX    ",
"....XXXXXXXXXXXXXXXXXXXXXXXXXXXXXXXXXXXXXXXXXXXXXXXXXXXXXXXX    ",
"                                                                ",
"                                                                ",
"                                                                ",
"                                                                "
};
