/* XPM */
static char *_4b3a7dd5a844297e819a1c4fb63142cuzXd3AJOU1y7a2BF[] = {
/* columns rows colors chars-per-pixel */
"64 64 3 1 ",
"  c black",
". c #D26B20",
"X c #EBAA7A",
/* pixels */
"XXXXXXXXXXXXXXXXXXXXXXXXXXXXXXXXXXXXXXXXXXXXXXXXXXXXXXXXXXXXXXXX",
"XXXXXXXXXXXXXXXXXXXXXXXXXXXXXXXXXXXXXXXXXXXXXXXXXXXXXXXXXXXXXXXX",
"XXXXXXXXXXXXXXXXXXXXXXXXXXXXXXXXXXXXXXXXXXXXXXXXXXXXXXXXXXXXXXXX",
"XXXXXXXXXXXXXXXXXXXXXXXXXXXXXXXXXXXXXXXXXXXXXXXXXXXXXXXXXXXXXXXX",
"............................    ............................    ",
"............................    ............................    ",
"............................    ............................    ",
"............................    ............................    ",
"............................    ............................    ",
"............................    ............................    ",
"............................    ............................    ",
"............................    ............................    ",
"                                                                ",
"                                                                ",
"                                                                ",
"                                                                ",
"............    ................................    ............",
"............    ................................    ............",
"............    ................................    ............",
"............    ................................    ............",
"............    ................................    ............",
"............    ................................    ............",
"............    ................................    ............",
"............    ................................    ............",
"............    ................................    ............",
"............    ................................    ............",
"............    ................................    ............",
"............    ................................    ............",
"                                                                ",
"                                                                ",
"                                                                ",
"                                                                ",
"............................    ............................    ",
"............................    ............................    ",
"............................    ............................    ",
"............................    ............................    ",
"............................    ............................    ",
"............................    ............................    ",
"............................    ............................    ",
"............................    ............................    ",
"............................    ............................    ",
"............................    ............................    ",
"............................    ............................    ",
"............................    ............................    ",
"                                                                ",
"                                                                ",
"                                                                ",
"                                                                ",
"............    ................................    ............",
"............    ................................    ............",
"............    ................................    ............",
"............    ................................    ............",
"............    ................................    ............",
"............    ................................    ............",
"............    ................................    ............",
"............    ................................    ............",
"............    ................................    ............",
"............    ................................    ............",
"............    ................................    ............",
"............    ................................    ............",
"                                                                ",
"                                                                ",
"                                                                ",
"                                                                "
};
